<svg width="22" height="21" viewBox="0 0 22 21" fill="none" xmlns="http://www.w3.org/2000/svg">
<path d="M10.8982 0.756847L11 0.75C11.3797 0.75 11.6935 1.03215 11.7432 1.39823L11.75 1.5V10H20.25C20.6297 10 20.9435 10.2822 20.9932 10.6482L21 10.75C21 11.1297 20.7178 11.4435 20.3518 11.4932L20.25 11.5H11.75V20C11.75 20.3797 11.4678 20.6935 11.1018 20.7432L11 20.75C10.6203 20.75 10.3065 20.4678 10.2568 20.1018L10.25 20V11.5H1.75C1.3703 11.5 1.05651 11.2178 1.00685 10.8518L1 10.75C1 10.3703 1.28215 10.0565 1.64823 10.0068L1.75 10H10.25V1.5C10.25 1.1203 10.5322 0.806509 10.8982 0.756847L11 0.75L10.8982 0.756847Z" fill="white"/>
<path d="M10.8915 0.657072L10.8915 0.656843L10.8848 0.657754C10.4698 0.714052 10.15 1.0696 10.15 1.5V9.9H1.75V9.89977L1.74329 9.90023L1.64152 9.90707L1.6415 9.90684L1.63479 9.90775C1.2198 9.96405 0.9 10.3196 0.9 10.75H0.899774L0.900226 10.7567L0.907072 10.8585L0.906843 10.8585L0.907754 10.8652C0.964052 11.2802 1.3196 11.6 1.75 11.6H10.15V20H10.1498L10.1502 20.0067L10.1571 20.1085L10.1568 20.1085L10.1578 20.1152C10.2141 20.5302 10.5696 20.85 11 20.85V20.8502L11.0067 20.8498L11.1085 20.8429L11.1085 20.8432L11.1152 20.8422C11.5302 20.7859 11.85 20.4304 11.85 20V11.6H20.25V11.6002L20.2567 11.5998L20.3585 11.5929L20.3585 11.5932L20.3652 11.5922C20.7802 11.5359 21.1 11.1804 21.1 10.75H21.1002L21.0998 10.7433L21.0929 10.6415L21.0932 10.6415L21.0922 10.6348C21.0359 10.2198 20.6804 9.9 20.25 9.9H11.85V1.5H11.8502L11.8498 1.49329L11.8429 1.39152L11.8432 1.3915L11.8422 1.38479C11.7859 0.969803 11.4304 0.65 11 0.65V0.649774L10.9933 0.650226L10.8915 0.657072Z" stroke="black" stroke-opacity="0.2" stroke-width="0.2"/>
</svg>
