<svg width="24" height="24" xmlns="http://www.w3.org/2000/svg" fill="none">

 <g>
  <title>Layer 1</title>
  <path stroke-width="3" id="svg_1" fill="#262626" d="m19.75,10c0,-5.38478 -4.3652,-9.75 -9.75,-9.75c-5.38478,0 -9.75,4.36522 -9.75,9.75c0,5.3848 4.36522,9.75 9.75,9.75c2.4226,0 4.6388,-0.8836 6.344,-2.346l5.9896,5.9903l0.0841,0.0726c0.2937,0.2179 0.7103,0.1937 0.9766,-0.0726c0.2929,-0.2929 0.2929,-0.7678 0,-1.0607l-5.9903,-5.9896c1.4624,-1.7052 2.346,-3.9214 2.346,-6.344zm-18,0c0,-4.55635 3.69365,-8.25 8.25,-8.25c4.5563,0 8.25,3.69365 8.25,8.25c0,4.5563 -3.6937,8.25 -8.25,8.25c-4.55635,0 -8.25,-3.6937 -8.25,-8.25z" clip-rule="evenodd" fill-rule="evenodd"/>
 </g>
</svg>